Coordinates
version=1
nRows=50
nColumns=16
inDegrees=yes
endheader
time	shoulder_elv_r	shoulder_elv_l	elv_angle_r	elv_angle_l	elbow_flexion_r	elbow_flexion_l	shoulder_rot_r	shoulder_rot_l	pro_sup_r	pro_sup_l	hip_flexion_r	hip_flexion_l	knee_angle_r	knee_angle_l	lumbar_extension
0.000000	80.000000	80.000000	112.500000	112.500000	30.000000	30.000000	15.000000	15.000000	80.000000	80.000000	0.000000	0.000000	0.000000	0.000000	0.000000
0.040816	78.877551	78.877551	112.500000	112.500000	30.000000	30.000000	15.000000	15.000000	80.000000	80.000000	0.000000	0.000000	0.000000	0.000000	0.000000
0.081633	77.755102	77.755102	112.500000	112.500000	30.000000	30.000000	15.000000	15.000000	80.000000	80.000000	0.000000	0.000000	0.000000	0.000000	0.000000
0.122449	76.632653	76.632653	112.500000	112.500000	30.000000	30.000000	15.000000	15.000000	80.000000	80.000000	0.000000	0.000000	0.000000	0.000000	0.000000
0.163265	75.510204	75.510204	112.500000	112.500000	30.000000	30.000000	15.000000	15.000000	80.000000	80.000000	0.000000	0.000000	0.000000	0.000000	0.000000
0.204082	74.387755	74.387755	112.500000	112.500000	30.000000	30.000000	15.000000	15.000000	80.000000	80.000000	0.000000	0.000000	0.000000	0.000000	0.000000
0.244898	73.265306	73.265306	112.500000	112.500000	30.000000	30.000000	15.000000	15.000000	80.000000	80.000000	0.000000	0.000000	0.000000	0.000000	0.000000
0.285714	72.142857	72.142857	112.500000	112.500000	30.000000	30.000000	15.000000	15.000000	80.000000	80.000000	0.000000	0.000000	0.000000	0.000000	0.000000
0.326531	71.020408	71.020408	112.500000	112.500000	30.000000	30.000000	15.000000	15.000000	80.000000	80.000000	0.000000	0.000000	0.000000	0.000000	0.000000
0.367347	69.897959	69.897959	112.500000	112.500000	30.000000	30.000000	15.000000	15.000000	80.000000	80.000000	0.000000	0.000000	0.000000	0.000000	0.000000
0.408163	68.775510	68.775510	112.500000	112.500000	30.000000	30.000000	15.000000	15.000000	80.000000	80.000000	0.000000	0.000000	0.000000	0.000000	0.000000
0.448980	67.653061	67.653061	112.500000	112.500000	30.000000	30.000000	15.000000	15.000000	80.000000	80.000000	0.000000	0.000000	0.000000	0.000000	0.000000
0.489796	66.530612	66.530612	112.500000	112.500000	30.000000	30.000000	15.000000	15.000000	80.000000	80.000000	0.000000	0.000000	0.000000	0.000000	0.000000
0.530612	65.408163	65.408163	112.500000	112.500000	30.000000	30.000000	15.000000	15.000000	80.000000	80.000000	0.000000	0.000000	0.000000	0.000000	0.000000
0.571429	64.285714	64.285714	112.500000	112.500000	30.000000	30.000000	15.000000	15.000000	80.000000	80.000000	0.000000	0.000000	0.000000	0.000000	0.000000
0.612245	63.163265	63.163265	112.500000	112.500000	30.000000	30.000000	15.000000	15.000000	80.000000	80.000000	0.000000	0.000000	0.000000	0.000000	0.000000
0.653061	62.040816	62.040816	112.500000	112.500000	30.000000	30.000000	15.000000	15.000000	80.000000	80.000000	0.000000	0.000000	0.000000	0.000000	0.000000
0.693878	60.918367	60.918367	112.500000	112.500000	30.000000	30.000000	15.000000	15.000000	80.000000	80.000000	0.000000	0.000000	0.000000	0.000000	0.000000
0.734694	59.795918	59.795918	112.500000	112.500000	30.000000	30.000000	15.000000	15.000000	80.000000	80.000000	0.000000	0.000000	0.000000	0.000000	0.000000
0.775510	58.673469	58.673469	112.500000	112.500000	30.000000	30.000000	15.000000	15.000000	80.000000	80.000000	0.000000	0.000000	0.000000	0.000000	0.000000
0.816327	57.551020	57.551020	112.500000	112.500000	30.000000	30.000000	15.000000	15.000000	80.000000	80.000000	0.000000	0.000000	0.000000	0.000000	0.000000
0.857143	56.428571	56.428571	112.500000	112.500000	30.000000	30.000000	15.000000	15.000000	80.000000	80.000000	0.000000	0.000000	0.000000	0.000000	0.000000
0.897959	55.306122	55.306122	112.500000	112.500000	30.000000	30.000000	15.000000	15.000000	80.000000	80.000000	0.000000	0.000000	0.000000	0.000000	0.000000
0.938776	54.183673	54.183673	112.500000	112.500000	30.000000	30.000000	15.000000	15.000000	80.000000	80.000000	0.000000	0.000000	0.000000	0.000000	0.000000
0.979592	53.061224	53.061224	112.500000	112.500000	30.000000	30.000000	15.000000	15.000000	80.000000	80.000000	0.000000	0.000000	0.000000	0.000000	0.000000
1.020408	51.938776	51.938776	112.500000	112.500000	30.000000	30.000000	15.000000	15.000000	80.000000	80.000000	0.000000	0.000000	0.000000	0.000000	0.000000
1.061224	50.816327	50.816327	112.500000	112.500000	30.000000	30.000000	15.000000	15.000000	80.000000	80.000000	0.000000	0.000000	0.000000	0.000000	0.000000
1.102041	49.693878	49.693878	112.500000	112.500000	30.000000	30.000000	15.000000	15.000000	80.000000	80.000000	0.000000	0.000000	0.000000	0.000000	0.000000
1.142857	48.571429	48.571429	112.500000	112.500000	30.000000	30.000000	15.000000	15.000000	80.000000	80.000000	0.000000	0.000000	0.000000	0.000000	0.000000
1.183673	47.448980	47.448980	112.500000	112.500000	30.000000	30.000000	15.000000	15.000000	80.000000	80.000000	0.000000	0.000000	0.000000	0.000000	0.000000
1.224490	46.326531	46.326531	112.500000	112.500000	30.000000	30.000000	15.000000	15.000000	80.000000	80.000000	0.000000	0.000000	0.000000	0.000000	0.000000
1.265306	45.204082	45.204082	112.500000	112.500000	30.000000	30.000000	15.000000	15.000000	80.000000	80.000000	0.000000	0.000000	0.000000	0.000000	0.000000
1.306122	44.081633	44.081633	112.500000	112.500000	30.000000	30.000000	15.000000	15.000000	80.000000	80.000000	0.000000	0.000000	0.000000	0.000000	0.000000
1.346939	42.959184	42.959184	112.500000	112.500000	30.000000	30.000000	15.000000	15.000000	80.000000	80.000000	0.000000	0.000000	0.000000	0.000000	0.000000
1.387755	41.836735	41.836735	112.500000	112.500000	30.000000	30.000000	15.000000	15.000000	80.000000	80.000000	0.000000	0.000000	0.000000	0.000000	0.000000
1.428571	40.714286	40.714286	112.500000	112.500000	30.000000	30.000000	15.000000	15.000000	80.000000	80.000000	0.000000	0.000000	0.000000	0.000000	0.000000
1.469388	39.591837	39.591837	112.500000	112.500000	30.000000	30.000000	15.000000	15.000000	80.000000	80.000000	0.000000	0.000000	0.000000	0.000000	0.000000
1.510204	38.469388	38.469388	112.500000	112.500000	30.000000	30.000000	15.000000	15.000000	80.000000	80.000000	0.000000	0.000000	0.000000	0.000000	0.000000
1.551020	37.346939	37.346939	112.500000	112.500000	30.000000	30.000000	15.000000	15.000000	80.000000	80.000000	0.000000	0.000000	0.000000	0.000000	0.000000
1.591837	36.224490	36.224490	112.500000	112.500000	30.000000	30.000000	15.000000	15.000000	80.000000	80.000000	0.000000	0.000000	0.000000	0.000000	0.000000
1.632653	35.102041	35.102041	112.500000	112.500000	30.000000	30.000000	15.000000	15.000000	80.000000	80.000000	0.000000	0.000000	0.000000	0.000000	0.000000
1.673469	33.979592	33.979592	112.500000	112.500000	30.000000	30.000000	15.000000	15.000000	80.000000	80.000000	0.000000	0.000000	0.000000	0.000000	0.000000
1.714286	32.857143	32.857143	112.500000	112.500000	30.000000	30.000000	15.000000	15.000000	80.000000	80.000000	0.000000	0.000000	0.000000	0.000000	0.000000
1.755102	31.734694	31.734694	112.500000	112.500000	30.000000	30.000000	15.000000	15.000000	80.000000	80.000000	0.000000	0.000000	0.000000	0.000000	0.000000
1.795918	30.612245	30.612245	112.500000	112.500000	30.000000	30.000000	15.000000	15.000000	80.000000	80.000000	0.000000	0.000000	0.000000	0.000000	0.000000
1.836735	29.489796	29.489796	112.500000	112.500000	30.000000	30.000000	15.000000	15.000000	80.000000	80.000000	0.000000	0.000000	0.000000	0.000000	0.000000
1.877551	28.367347	28.367347	112.500000	112.500000	30.000000	30.000000	15.000000	15.000000	80.000000	80.000000	0.000000	0.000000	0.000000	0.000000	0.000000
1.918367	27.244898	27.244898	112.500000	112.500000	30.000000	30.000000	15.000000	15.000000	80.000000	80.000000	0.000000	0.000000	0.000000	0.000000	0.000000
1.959184	26.122449	26.122449	112.500000	112.500000	30.000000	30.000000	15.000000	15.000000	80.000000	80.000000	0.000000	0.000000	0.000000	0.000000	0.000000
2.000000	25.000000	25.000000	112.500000	112.500000	30.000000	30.000000	15.000000	15.000000	80.000000	80.000000	0.000000	0.000000	0.000000	0.000000	0.000000
